<svg width="263" height="41" viewBox="0 0 263 41" fill="none" xmlns="http://www.w3.org/2000/svg">
<path d="M69.3702 34.0605L59.9727 20.921V34.0605H51.6383V4.08204H59.9727V17.0089L69.2852 4.08204H78.8953L67.8819 18.6248L79.4481 34.0605H69.3702Z" fill="#192C6C"/>
<path d="M81.1314 22.1116C81.1314 19.6453 81.5708 17.4908 82.4496 15.6482C83.3567 13.8055 84.5757 12.3881 86.1065 11.3959C87.6657 10.4037 89.395 9.90764 91.2943 9.90764C92.9385 9.90764 94.3559 10.2336 95.5466 10.8857C96.7372 11.5377 97.6585 12.4165 98.3105 13.5221V10.2053H106.645V34.0605H98.3105V30.7437C97.6585 31.8493 96.723 32.7281 95.504 33.3801C94.3134 34.0321 92.9102 34.3581 91.2943 34.3581C89.395 34.3581 87.6657 33.862 86.1065 32.8699C84.5757 31.8777 83.3567 30.4602 82.4496 28.6176C81.5708 26.7466 81.1314 24.5779 81.1314 22.1116ZM98.3105 22.1116C98.3105 20.5808 97.8853 19.376 97.0348 18.4972C96.2127 17.6184 95.1922 17.179 93.9732 17.179C92.7259 17.179 91.6912 17.6184 90.8691 18.4972C90.047 19.3477 89.6359 20.5525 89.6359 22.1116C89.6359 23.6424 90.047 24.8614 90.8691 25.7686C91.6912 26.6474 92.7259 27.0868 93.9732 27.0868C95.1922 27.0868 96.2127 26.6474 97.0348 25.7686C97.8853 24.8898 98.3105 23.6708 98.3105 22.1116Z" fill="#192C6C"/>
<path d="M119.729 2.59375V34.0605H111.394V2.59375H119.729Z" fill="#192C6C"/>
<path d="M153.152 39.0782L149.836 34.103C148.9 34.2731 147.95 34.3581 146.987 34.3581C144.18 34.3581 141.6 33.7061 139.247 32.4021C136.895 31.0697 135.024 29.2413 133.635 26.9167C132.274 24.5638 131.593 21.9132 131.593 18.965C131.593 16.0167 132.274 13.3803 133.635 11.0557C135.024 8.70283 136.895 6.87436 139.247 5.57033C141.6 4.26631 144.18 3.61429 146.987 3.61429C149.821 3.61429 152.401 4.26631 154.726 5.57033C157.079 6.87436 158.935 8.70283 160.296 11.0557C161.657 13.3803 162.337 16.0167 162.337 18.965C162.337 21.4313 161.841 23.7133 160.849 25.8111C159.857 27.8805 158.496 29.6098 156.767 30.9989L163.103 39.0782H153.152ZM140.098 18.965C140.098 21.3179 140.707 23.1889 141.926 24.5779C143.145 25.9387 144.832 26.619 146.987 26.619C149.113 26.619 150.785 25.9245 152.004 24.5354C153.252 23.1463 153.875 21.2895 153.875 18.965C153.875 16.5837 153.252 14.7127 152.004 13.352C150.785 11.9629 149.113 11.2684 146.987 11.2684C144.832 11.2684 143.145 11.9629 141.926 13.352C140.707 14.7127 140.098 16.5837 140.098 18.965Z" fill="#192C6C"/>
<path d="M190.533 10.2053V34.0605H182.156V30.6587C181.448 31.7359 180.47 32.6147 179.222 33.2951C177.975 33.9471 176.543 34.2731 174.928 34.2731C172.149 34.2731 169.952 33.3659 168.337 31.5517C166.749 29.709 165.955 27.2143 165.955 24.0677V10.2053H174.247V23.0046C174.247 24.3653 174.602 25.4426 175.31 26.2363C176.047 27.0017 177.011 27.3844 178.202 27.3844C179.421 27.3844 180.385 27.0017 181.093 26.2363C181.802 25.4426 182.156 24.3653 182.156 23.0046V10.2053H190.533Z" fill="#192C6C"/>
<path d="M206.375 34.3581C203.994 34.3581 201.854 33.862 199.954 32.8699C198.083 31.8777 196.609 30.4602 195.532 28.6176C194.455 26.7749 193.916 24.6063 193.916 22.1116C193.916 19.6453 194.455 17.4908 195.532 15.6482C196.637 13.8055 198.126 12.3881 199.997 11.3959C201.896 10.4037 204.036 9.90764 206.418 9.90764C208.799 9.90764 210.925 10.4037 212.796 11.3959C214.695 12.3881 216.184 13.8055 217.261 15.6482C218.366 17.4908 218.919 19.6453 218.919 22.1116C218.919 24.5779 218.366 26.7466 217.261 28.6176C216.184 30.4602 214.695 31.8777 212.796 32.8699C210.897 33.862 208.756 34.3581 206.375 34.3581ZM206.375 27.1293C207.537 27.1293 208.501 26.7041 209.267 25.8536C210.06 24.9748 210.457 23.7275 210.457 22.1116C210.457 20.4958 210.06 19.2626 209.267 18.4122C208.501 17.5617 207.552 17.1365 206.418 17.1365C205.284 17.1365 204.334 17.5617 203.569 18.4122C202.803 19.2626 202.42 20.4958 202.42 22.1116C202.42 23.7558 202.789 25.0032 203.526 25.8536C204.263 26.7041 205.213 27.1293 206.375 27.1293Z" fill="#192C6C"/>
<path d="M236.385 26.9592V34.0605H232.771C226.676 34.0605 223.628 31.0414 223.628 25.0032V17.1365H220.694V10.2053H223.628V4.42222H232.005V10.2053H236.343V17.1365H232.005V25.1307C232.005 25.7827 232.147 26.2505 232.43 26.534C232.742 26.8175 233.253 26.9592 233.961 26.9592H236.385Z" fill="#192C6C"/>
<path d="M263 21.8565C263 22.5085 262.957 23.1605 262.872 23.8125H247.096C247.182 25.1166 247.536 26.0946 248.16 26.7466C248.812 27.3703 249.634 27.6821 250.626 27.6821C252.015 27.6821 253.007 27.0584 253.602 25.8111H262.49C262.121 27.4553 261.398 28.9294 260.321 30.2334C259.272 31.5091 257.94 32.5155 256.324 33.2526C254.708 33.9896 252.922 34.3581 250.966 34.3581C248.613 34.3581 246.515 33.862 244.673 32.8699C242.858 31.8777 241.427 30.4602 240.378 28.6176C239.357 26.7749 238.847 24.6063 238.847 22.1116C238.847 19.617 239.357 17.4625 240.378 15.6482C241.398 13.8055 242.816 12.3881 244.63 11.3959C246.473 10.4037 248.585 9.90764 250.966 9.90764C253.319 9.90764 255.403 10.3896 257.217 11.3534C259.031 12.3173 260.449 13.7063 261.469 15.5206C262.49 17.3066 263 19.4185 263 21.8565ZM254.495 19.7729C254.495 18.7523 254.155 17.9586 253.475 17.3916C252.794 16.7963 251.944 16.4986 250.924 16.4986C249.903 16.4986 249.067 16.7821 248.415 17.3491C247.763 17.8877 247.337 18.6956 247.139 19.7729H254.495Z" fill="#192C6C"/>
<path d="M27.876 5.03027H3.83095C2.3338 5.03027 1.12012 6.24395 1.12012 7.74111V31.7862C1.12012 33.2833 2.3338 34.497 3.83095 34.497H27.876C29.3732 34.497 30.5869 33.2833 30.5869 31.7862V7.74111C30.5869 6.24395 29.3732 5.03027 27.876 5.03027Z" fill="#BE764A" stroke="#BE764A" stroke-width="0.25" stroke-miterlimit="10"/>
<path d="M39.2211 5.53172C36.3137 8.43909 33.4063 11.3465 30.499 14.2538V20.875C34.511 16.863 38.523 12.851 42.5351 8.83894C44.6698 6.70415 41.3558 3.39016 39.2211 5.52494V5.53172Z" fill="#BE764A"/>
<path d="M7.0637 20.7663C10.1202 23.8228 13.1834 26.886 16.2399 29.9425C17.209 30.9116 18.8626 30.9184 19.8317 29.9425C27.3949 22.3793 34.9582 14.8161 42.5214 7.25284C44.8391 4.93508 41.2473 1.34323 38.9295 3.66099C31.3663 11.2242 23.8031 18.7874 16.2399 26.3507H19.8317C16.7753 23.2942 13.712 20.2309 10.6556 17.1745C8.33779 14.8567 4.74594 18.4486 7.0637 20.7663Z" fill="#FDFCFC"/>
</svg>
